<svg width="278" height="278" viewBox="0 0 278 278" fill="none" xmlns="http://www.w3.org/2000/svg">
<path fill-rule="evenodd" clip-rule="evenodd" d="M144.999 0.129469C141.688 -0.0135212 139 2.68629 139 6V107.471C139 110.785 141.722 113.401 144.945 114.173C146.991 114.663 148.977 115.406 150.854 116.39C154.51 118.307 157.648 121.082 159.997 124.478C162.345 127.874 163.836 131.789 164.339 135.888C164.597 137.991 164.591 140.111 164.328 142.198C163.913 145.486 165.4 148.956 168.501 150.126L263.444 185.932C266.545 187.101 270.02 185.539 271.054 182.391C277.432 162.982 279.46 142.38 276.963 122.054C274.222 99.7396 266.11 78.4234 253.322 59.9331C240.533 41.4428 223.451 26.3303 203.54 15.8917C185.402 6.38293 165.409 1.01101 144.999 0.129469ZM22.7262 74.4295C19.8292 72.8207 18.7735 69.1603 20.5059 66.3355C29.7916 51.1933 41.9039 37.9546 56.2013 27.3518C70.4981 16.749 86.6832 9.00201 103.869 4.51272C107.075 3.67523 110.272 5.74797 110.97 8.98724L121.754 59.0073C122.452 62.2466 120.383 65.4154 117.21 66.3676C108.811 68.8874 100.897 72.8495 93.8297 78.0909C86.7618 83.3323 80.6729 89.7544 75.8233 97.0599C73.9903 99.8207 70.3575 100.881 67.4605 99.2718L22.7262 74.4295ZM253.351 206.919C256.199 208.611 257.148 212.301 255.335 215.074C237.902 241.734 211.796 261.655 181.34 271.394C148.976 281.745 113.941 279.882 82.8575 266.157C51.7735 252.433 26.7931 227.798 12.6371 196.908C-0.683995 167.84 -3.55143 135.128 4.40512 104.284C5.23275 101.075 8.59848 99.2904 11.7684 100.256L20.0025 102.763C23.1725 103.729 24.9439 107.078 24.1407 110.293C17.6371 136.311 20.149 163.835 31.3712 188.323C43.4283 214.634 64.7052 235.616 91.1812 247.306C117.657 258.995 147.497 260.582 175.064 251.766C200.72 243.561 222.753 226.873 237.598 204.539C239.432 201.779 243.101 200.831 245.95 202.523L253.351 206.919Z" fill="#FFB672"/>
</svg>
