<svg width="234" height="199" viewBox="0 0 234 199" fill="none" xmlns="http://www.w3.org/2000/svg">
<path fill-rule="evenodd" clip-rule="evenodd" d="M11.0012 194.49C4.94458 196.896 -0.0646973 189.279 4.5437 184.671L88.865 100.35L2.24243 13.7279C-0.100342 11.3848 -0.100342 7.58579 2.24243 5.24265C4.58569 2.89949 8.38452 2.89949 10.7278 5.24265L97.3503 91.8649L102.365 86.8504L85.2424 69.7279C82.8997 67.3848 82.8997 63.5858 85.2424 61.2426C87.5857 58.8995 91.3845 58.8995 93.7278 61.2426L110.85 78.365L186.893 2.32169C191.287 -2.07208 198.178 3.84914 194.497 8.85454C191.304 13.1942 196.251 18.8345 200.97 16.2365L224.391 3.34285C230.474 -0.00597785 236.438 7.93149 231.528 12.8417L138.427 105.942L220.3 187.815C222.643 190.158 222.643 193.957 220.3 196.3C217.957 198.643 214.158 198.643 211.815 196.3L129.942 114.427L124.927 119.442L137.3 131.815C139.643 134.158 139.643 137.957 137.3 140.3C134.957 142.643 131.158 142.643 128.815 140.3L116.442 127.927L48.0608 196.308C44.3542 200.015 38.5198 195.072 41.5662 190.807C44.0422 187.341 40.4739 182.784 36.5154 184.356L11.0012 194.49Z" fill="#A788FF"/>
</svg>
